<svg width="111" height="125" viewBox="0 0 111 125" fill="none" xmlns="http://www.w3.org/2000/svg">
<path d="M55.2691 124.7L54.4091 124.32C40.1891 118.03 28.3391 108.92 19.1891 97.24C-6.68085 64.2 0.16915 24.38 2.88915 12.97L3.36915 10.93L5.42915 11.32C14.2792 12.99 23.5691 12.77 32.2791 10.67C40.0791 8.79 47.3591 5.51 53.9291 0.93L55.2491 0L56.5291 0.99C62.2791 5.44 68.6592 8.7 75.5092 10.7C87.5092 14.2 98.2092 12.98 105.059 11.34L107.149 10.84L107.689 12.92C109.819 21.03 119.069 63.23 92.3391 97.24C83.1391 108.95 70.6192 118.32 56.1292 124.34L55.2591 124.7H55.2691ZM6.70915 15.99C3.93915 29.02 -0.680851 64.74 22.6491 94.53C31.1691 105.41 42.1592 113.95 55.3292 119.92C68.7592 114.18 80.3592 105.41 88.9092 94.53C112.599 64.37 106.549 27.3 103.969 16.08C96.5992 17.57 86.0392 18.34 74.2992 14.91C67.4292 12.91 60.9891 9.72 55.1391 5.42C48.4691 9.85 41.1392 13.05 33.3292 14.93C24.6992 17 15.5491 17.36 6.72915 15.98L6.70915 15.99Z" fill="#FFDB67"/>
<path d="M45.3292 95.88C41.2092 93.47 27.6292 84.95 27.6392 73.26C27.6392 66.97 31.5892 61.87 38.1192 53.44C45.8592 43.43 50.8092 41.53 53.8492 33.4C55.9292 27.84 55.8892 22.63 55.5292 19.07C69.5192 29.07 78.1092 43.85 76.0192 57.48C75.7492 59.25 72.9092 76.37 61.0192 82.67C57.4692 84.55 51.0692 86.56 49.5992 91.85C49.1092 93.61 49.3092 95.21 49.5392 96.25L51.4092 104.2L50.0292 104.39C47.4292 98.54 44.4792 88.99 47.4492 79.27C49.2392 73.44 52.8092 68.22 52.8092 68.22C56.7792 62.41 59.6392 61.47 62.0892 55.83C63.9292 51.58 64.1492 47.87 64.1792 46.42C64.2992 41.31 62.7892 37.34 61.7892 35.22C62.2892 38.79 62.5592 44.77 59.8492 51.19C59.6292 51.72 58.9492 53.28 57.7592 55.22C53.3392 62.45 49.2092 62.93 45.6692 68.21C42.7292 72.58 42.3292 77.08 42.0892 79.71C41.3892 87.38 44.0192 93.3 45.3592 95.87H45.3292V95.88Z" fill="#FFDB67"/>
<path d="M55.5391 103.85C55.1591 103.43 52.1391 99.98 52.9391 95.07C53.7391 90.16 57.6791 87.85 58.1791 87.57C60.8591 86.3 63.8591 84.8 67.1391 83.02C69.4191 81.78 71.3891 80.65 72.8091 78.32C73.3591 77.42 73.6691 76.59 73.8591 76.01C74.7191 77 75.9491 78.65 76.7691 80.94C79.5291 88.62 74.8991 95.49 74.6091 95.9C73.4191 97.6 71.4791 100.39 68.1891 101.24C67.3991 101.45 67.1691 101.37 62.5891 102.21C61.1691 102.47 59.4091 102.82 58.4291 104.24C58.2391 104.51 58.1291 104.77 58.0591 104.94H57.5891C57.6691 104.39 57.7991 103.63 58.0591 102.75C58.2891 101.97 59.2591 98.95 61.7891 96.4C64.4991 93.68 66.0191 94.5 69.9291 91.2C70.7091 90.55 71.9091 89.45 72.7291 87.65C73.1491 86.73 73.3391 85.9 73.4391 85.34L72.9491 84.56C72.4291 85.73 71.4791 87.47 69.7791 89.08C68.5891 90.2 67.4691 90.85 66.6391 91.32C63.1491 93.31 61.8491 92.68 59.9991 94.53C59.0691 95.45 58.4191 96.58 58.0991 97.14C57.5391 98.1 57.1491 98.8 56.9791 99.79C56.7691 101.03 57.0091 102.07 57.1991 102.66L55.5491 103.87V103.85H55.5391Z" fill="#FFDB67"/>
</svg>
