<svg width="245" height="69" viewBox="0 0 245 69" fill="none" xmlns="http://www.w3.org/2000/svg">
<g clip-path="url(#clip0_24_92)">
<path d="M30.7418 69L30.2635 68.7897C22.3541 65.3093 15.763 60.2685 10.6737 53.8056C-3.71549 35.5237 0.0945564 13.4901 1.60745 7.17666L1.87443 6.04787L3.02023 6.26367C7.9427 7.18773 13.1099 7.066 17.9545 5.90401C22.293 4.86375 26.3422 3.04884 29.9965 0.514595L30.7307 0L31.4426 0.547795C34.6408 3.0101 38.1895 4.81395 41.9995 5.92061C48.6741 7.85726 54.6255 7.1822 58.4356 6.27474L59.5981 5.99808L59.8984 7.149C61.0831 11.6365 66.2281 34.9869 51.3606 53.8056C46.2434 60.2851 39.2797 65.4698 31.2201 68.8008L30.7362 69H30.7418ZM3.73218 8.84771C2.19147 16.0576 -0.378224 35.8225 12.5982 52.3061C17.3371 58.3263 23.4499 63.0517 30.7752 66.3551C38.2451 63.179 44.6972 58.3263 49.4528 52.3061C62.6294 35.6177 59.2643 15.1059 57.8293 8.89751C53.73 9.72197 47.8564 10.148 41.3265 8.25012C37.5053 7.14346 33.9233 5.37835 30.6695 2.99904C26.9596 5.45028 22.8825 7.22093 18.5385 8.26119C13.7384 9.40658 8.64909 9.60577 3.7433 8.84218L3.73218 8.84771Z" fill="#FFDB67"/>
<path d="M25.2131 53.0531C22.9215 51.7196 15.3681 47.0053 15.3737 40.5368C15.3737 37.0564 17.5707 34.2344 21.2028 29.5699C25.5078 24.0311 28.2611 22.9798 29.952 18.4812C31.1089 15.4047 31.0866 12.5218 30.8864 10.552C38.6678 16.0853 43.4457 24.2635 42.2832 31.8053C42.133 32.7847 40.5534 42.2577 33.94 45.7437C31.9655 46.7839 28.4057 47.8961 27.5881 50.8232C27.3155 51.7971 27.4268 52.6824 27.5547 53.2579L28.5948 57.6568L27.8272 57.762C26.3811 54.525 24.7403 49.2407 26.3922 43.8623C27.3878 40.6364 29.3735 37.7481 29.3735 37.7481C31.5817 34.5332 33.1724 34.0131 34.5352 30.8923C35.5586 28.5407 35.681 26.4878 35.6976 25.6855C35.7644 22.858 34.9245 20.6613 34.3683 19.4883C34.6464 21.4636 34.7966 24.7725 33.2892 28.3249C33.1669 28.6182 32.7887 29.4814 32.1268 30.5548C29.6683 34.5554 27.3712 34.821 25.4022 37.7425C23.7669 40.1606 23.5444 42.6506 23.4109 44.1058C23.0216 48.3498 24.4844 51.6255 25.2297 53.0476H25.2131V53.0531Z" fill="#FFDB67"/>
<path d="M30.892 57.463C30.6806 57.2306 29.0009 55.3216 29.4458 52.6048C29.8908 49.8879 32.0823 48.6098 32.3604 48.4548C33.851 47.7521 35.5197 46.9221 37.344 45.9372C38.6122 45.251 39.7079 44.6258 40.4977 43.3365C40.8037 42.8385 40.9761 42.3793 41.0818 42.0583C41.5601 42.6061 42.2442 43.5191 42.7003 44.7863C44.2355 49.0358 41.6602 52.8372 41.4989 53.064C40.837 54.0047 39.758 55.5485 37.9281 56.0188C37.4886 56.135 37.3607 56.0907 34.8133 56.5555C34.0234 56.6994 33.0445 56.8931 32.4994 57.6788C32.3937 57.8282 32.3326 57.9721 32.2936 58.0661H32.0322C32.0767 57.7618 32.149 57.3413 32.2936 56.8543C32.4216 56.4227 32.9611 54.7517 34.3683 53.3407C35.8756 51.8357 36.7211 52.2894 38.8959 50.4634C39.3297 50.1037 39.9972 49.4951 40.4533 48.4991C40.6869 47.99 40.7925 47.5308 40.8482 47.2209L40.5756 46.7893C40.2864 47.4367 39.758 48.3995 38.8124 49.2903C38.1505 49.9101 37.5276 50.2697 37.0659 50.5298C35.1247 51.6309 34.4017 51.2823 33.3727 52.306C32.8554 52.815 32.4939 53.4403 32.3159 53.7502C32.0044 54.2814 31.7875 54.6687 31.6929 55.2165C31.5761 55.9026 31.7096 56.4781 31.8153 56.8045L30.8975 57.4741V57.463H30.892Z" fill="#FFDB67"/>
<path d="M96.6751 6.51831C95.5905 6.51831 94.745 6.87797 94.1388 7.60283C93.5325 8.32216 93.1932 9.37902 93.1153 10.7623L92.6481 19.2117H82.1357L82.6029 10.7623C82.6808 9.37902 82.4528 8.32769 81.9299 7.60283C81.4015 6.87797 80.5728 6.51831 79.516 6.51831C78.4592 6.51831 77.6193 6.88351 77.0019 7.60283C76.3845 8.32216 76.0396 9.37902 75.9618 10.7623L74.6269 34.9317C74.5546 36.2874 74.7826 37.3331 75.3221 38.0691C75.8617 38.805 76.657 39.1757 77.7194 39.1757C78.8263 39.1757 79.6773 38.805 80.2668 38.0691C80.862 37.3331 81.2013 36.2874 81.2736 34.9317L81.7631 26.0342H92.2754L91.786 34.9317C91.7081 36.2874 91.9362 37.3331 92.459 38.0691C92.9874 38.805 93.8162 39.1757 94.873 39.1757C95.9298 39.1757 96.7641 38.805 97.3703 38.0691C97.9766 37.3331 98.3215 36.2874 98.3938 34.9317L99.7287 10.7623C99.8066 9.37902 99.5841 8.32769 99.0557 7.60283C98.5273 6.87797 97.7597 6.51831 96.6751 6.51831Z" fill="#FFDB67"/>
<path d="M119.641 9.90468C119.252 8.73162 118.762 7.87396 118.178 7.3317C117.594 6.78944 116.893 6.51831 116.076 6.51831C115.258 6.51831 114.513 6.78944 113.845 7.3317C113.172 7.87396 112.594 8.73162 112.093 9.90468L101.764 34.1183C101.375 35.0811 101.219 35.9443 101.297 36.7134C101.375 37.4825 101.653 38.0857 102.137 38.5228C102.615 38.9544 103.233 39.1757 103.978 39.1757H103.984C104.924 39.1813 105.636 38.9101 106.125 38.3679C106.609 37.8256 107.104 36.9514 107.605 35.7451L108.962 32.3089H120.314L121.293 35.7451C121.638 36.9514 122.049 37.8256 122.539 38.3679C123.023 38.9101 123.751 39.1813 124.714 39.1813C125.437 39.1813 126.054 38.971 126.571 38.5505C127.089 38.1244 127.422 37.5268 127.573 36.7411C127.723 35.9554 127.634 35.0811 127.3 34.1183L119.641 9.90468ZM111.47 25.9401L115.503 15.5984H115.581L118.506 25.9401H111.47Z" fill="#FFDB67"/>
<path d="M157.953 6.91675H145.928C144.798 6.91675 143.914 7.28748 143.286 8.0234C142.652 8.76486 142.301 9.82725 142.223 11.2106L140.916 34.8819C140.838 36.2708 141.072 37.3332 141.623 38.0691C142.173 38.805 142.974 39.1758 144.036 39.1758H144.031C146.222 39.1813 147.402 37.7482 147.557 34.8875L148.041 26.1228H156.095C156.941 26.1228 157.597 25.8516 158.075 25.3094C158.554 24.7671 158.821 23.9371 158.876 22.9135C158.932 21.8898 158.754 21.1041 158.337 20.5618C157.925 20.0196 157.297 19.7484 156.451 19.7484H148.397L148.753 13.3354H157.602C158.47 13.3354 159.138 13.0587 159.599 12.4998C160.066 11.941 160.328 11.1054 160.384 10.0818C160.439 9.05813 160.267 8.2724 159.861 7.73014C159.455 7.18788 158.821 6.91675 157.953 6.91675Z" fill="#FFDB67"/>
<path d="M182.054 8.46602C180.19 7.11036 177.971 6.4353 175.396 6.4353C173.466 6.4353 171.686 6.8171 170.056 7.58623C168.426 8.35535 166.997 9.46201 165.773 10.9062C164.55 12.3504 163.571 14.0823 162.848 16.1019C162.124 18.1161 161.696 20.3626 161.557 22.8304C161.374 26.1116 161.752 28.989 162.686 31.4568C163.621 33.9246 165.028 35.8447 166.902 37.2169C168.777 38.5837 171.002 39.2698 173.577 39.2698C175.507 39.2698 177.287 38.888 178.917 38.1189C180.546 37.3497 181.976 36.2375 183.199 34.7768C184.423 33.316 185.402 31.5785 186.125 29.5589C186.848 27.5448 187.276 25.2983 187.415 22.8304C187.599 19.5215 187.215 16.6387 186.27 14.1819C185.324 11.7251 183.917 9.82167 182.054 8.46602ZM180.518 22.8193C180.407 24.8113 180.073 26.51 179.512 27.9266C178.955 29.3431 178.21 30.4276 177.276 31.1801C176.341 31.9327 175.234 32.3089 173.961 32.3089C172.058 32.3089 170.623 31.4734 169.656 29.8023C168.693 28.1313 168.287 25.8073 168.454 22.8249C168.565 20.8052 168.899 19.0954 169.461 17.6955C170.017 16.2956 170.768 15.2222 171.714 14.4862C172.654 13.7503 173.755 13.3796 175.006 13.3796C176.909 13.3796 178.344 14.2096 179.311 15.864C180.279 17.5185 180.685 19.8369 180.518 22.8193Z" fill="#FFDB67"/>
<path d="M211.205 8.46602C209.341 7.11036 207.122 6.4353 204.547 6.4353C202.617 6.4353 200.837 6.8171 199.207 7.58623C197.577 8.35535 196.148 9.46201 194.924 10.9062C193.701 12.3504 192.722 14.0823 191.999 16.1019C191.276 18.1161 190.847 20.3626 190.708 22.8304C190.525 26.1116 190.903 28.989 191.837 31.4568C192.772 33.9246 194.179 35.8447 196.053 37.2169C197.928 38.5837 200.153 39.2698 202.728 39.2698C204.658 39.2698 206.438 38.888 208.068 38.1189C209.697 37.3497 211.127 36.2375 212.35 34.7768C213.574 33.316 214.553 31.5785 215.276 29.5589C215.999 27.5448 216.427 25.2983 216.566 22.8304C216.75 19.5215 216.366 16.6387 215.421 14.1819C214.475 11.7251 213.068 9.82167 211.205 8.46602ZM209.669 22.8193C209.558 24.8113 209.224 26.51 208.663 27.9266C208.106 29.3431 207.361 30.4276 206.427 31.1801C205.492 31.9327 204.385 32.3089 203.112 32.3089C201.209 32.3089 199.774 31.4734 198.807 29.8023C197.844 28.1313 197.438 25.8073 197.605 22.8249C197.716 20.8052 198.05 19.0954 198.612 17.6955C199.168 16.2956 199.919 15.2222 200.865 14.4862C201.805 13.7503 202.906 13.3796 204.157 13.3796C206.06 13.3796 207.495 14.2096 208.462 15.864C209.43 17.5185 209.836 19.8369 209.669 22.8193Z" fill="#FFDB67"/>
<path d="M241.974 11.0776C239.71 8.30544 236.362 6.92212 231.929 6.92212H224.848C223.719 6.92212 222.835 7.29285 222.206 8.02878C221.572 8.77023 221.222 9.83262 221.144 11.2159L219.859 34.4779C219.781 35.8667 220.015 36.9291 220.566 37.665C221.111 38.4009 221.951 38.7717 223.085 38.7717H230.171C232.385 38.7717 234.371 38.4175 236.134 37.7093C237.892 37.001 239.399 35.9663 240.656 34.5941C241.913 33.2273 242.909 31.5563 243.643 29.5809C244.377 27.6055 244.816 25.3535 244.955 22.8248C245.234 17.7618 244.244 13.8498 241.974 11.0776ZM238.053 22.8248C237.969 24.3907 237.741 25.7463 237.38 26.8917C237.013 28.0371 236.507 28.9833 235.85 29.7358C235.194 30.4884 234.387 31.0583 233.442 31.4511C232.491 31.844 231.378 32.0377 230.105 32.0377H226.645L227.657 13.6561H231.122C233.625 13.6561 235.45 14.4031 236.596 15.8916C237.741 17.38 238.225 19.6929 238.053 22.8248Z" fill="#FFDB67"/>
<path d="M86.463 61.3418C86.2072 61.3418 86.0181 61.2699 85.8846 61.126C85.7511 60.9822 85.6844 60.783 85.6844 60.5285V48.5489C85.6844 48.2833 85.7511 48.0841 85.8846 47.9402C86.0181 47.8019 86.2128 47.73 86.463 47.73C86.7133 47.73 86.908 47.8019 87.0415 47.9402C87.175 48.0786 87.2417 48.2833 87.2417 48.5489V53.7723H95.2901V48.5489C95.2901 48.2833 95.3569 48.0841 95.4904 47.9402C95.6238 47.8019 95.8185 47.73 96.0688 47.73C96.3191 47.73 96.5138 47.8019 96.6473 47.9402C96.7808 48.0786 96.8475 48.2833 96.8475 48.5489V60.5285C96.8475 60.783 96.7808 60.9822 96.6473 61.126C96.5138 61.2699 96.3191 61.3418 96.0688 61.3418C95.8185 61.3418 95.6238 61.2699 95.4904 61.126C95.3569 60.9822 95.2901 60.783 95.2901 60.5285V55.1169H87.2417V60.5285C87.2417 60.783 87.1806 60.9822 87.0526 61.126C86.9247 61.2699 86.73 61.3418 86.463 61.3418Z" fill="#FFDB67"/>
<path d="M104.117 61.3808C103.138 61.3808 102.298 61.1871 101.598 60.8053C100.891 60.418 100.346 59.8757 99.9623 59.1675C99.573 58.4592 99.3839 57.6181 99.3839 56.6332C99.3839 55.6483 99.573 54.8404 99.9568 54.1266C100.335 53.4128 100.858 52.854 101.525 52.4501C102.193 52.0461 102.96 51.8469 103.839 51.8469C104.462 51.8469 105.018 51.9521 105.513 52.1568C106.008 52.3671 106.431 52.6659 106.781 53.0587C107.132 53.4516 107.399 53.9219 107.582 54.4808C107.766 55.0396 107.861 55.6594 107.861 56.3565C107.861 56.5557 107.805 56.7051 107.688 56.7992C107.571 56.8933 107.41 56.9431 107.193 56.9431H100.569V55.9416H106.832L106.526 56.1906C106.526 55.51 106.425 54.929 106.22 54.4586C106.014 53.9883 105.719 53.6231 105.335 53.3686C104.946 53.114 104.462 52.9923 103.878 52.9923C103.233 52.9923 102.682 53.1417 102.232 53.435C101.781 53.7282 101.442 54.1432 101.214 54.6634C100.986 55.189 100.869 55.7977 100.869 56.4893V56.6C100.869 57.762 101.153 58.6473 101.714 59.2505C102.276 59.8591 103.083 60.1579 104.123 60.1579C104.551 60.1579 104.979 60.1026 105.408 59.9864C105.83 59.8702 106.248 59.682 106.654 59.4165C106.832 59.3058 106.993 59.2505 107.137 59.256C107.282 59.2615 107.399 59.3058 107.488 59.3888C107.577 59.4718 107.638 59.5714 107.671 59.6931C107.705 59.8148 107.688 59.9421 107.632 60.0804C107.577 60.2188 107.466 60.3405 107.299 60.4401C106.882 60.7444 106.387 60.9768 105.814 61.1428C105.241 61.3088 104.679 61.3863 104.123 61.3863H104.117V61.3808Z" fill="#FFDB67"/>
<path d="M112.989 61.3807C112.355 61.3807 111.787 61.259 111.287 61.01C110.786 60.761 110.391 60.4234 110.096 59.9974C109.807 59.5658 109.657 59.0899 109.657 58.5587C109.657 57.8781 109.83 57.3414 110.18 56.9485C110.53 56.5557 111.103 56.279 111.91 56.1185C112.716 55.9525 113.818 55.8751 115.214 55.8751H116.07V56.8766H115.236C114.207 56.8766 113.4 56.9264 112.811 57.0205C112.221 57.1145 111.81 57.275 111.576 57.5019C111.342 57.7287 111.226 58.0497 111.226 58.4646C111.226 58.9848 111.409 59.4053 111.771 59.7318C112.132 60.0582 112.622 60.2242 113.245 60.2242C113.751 60.2242 114.201 60.1025 114.585 59.8646C114.974 59.6266 115.275 59.2946 115.497 58.8796C115.72 58.4646 115.831 57.9832 115.831 57.441V55.283C115.831 54.5028 115.67 53.9384 115.358 53.5898C115.041 53.2412 114.518 53.0697 113.795 53.0697C113.35 53.0697 112.905 53.125 112.466 53.2412C112.021 53.3519 111.554 53.54 111.059 53.789C110.881 53.8776 110.731 53.9052 110.603 53.872C110.475 53.8388 110.375 53.7724 110.297 53.6728C110.219 53.5732 110.174 53.457 110.163 53.3242C110.152 53.1914 110.18 53.0642 110.247 52.9369C110.319 52.8096 110.43 52.71 110.58 52.6326C111.137 52.3559 111.687 52.1512 112.238 52.0294C112.783 51.9022 113.306 51.8413 113.795 51.8413C114.596 51.8413 115.253 51.9686 115.775 52.2286C116.293 52.4887 116.682 52.876 116.938 53.4017C117.194 53.9274 117.316 54.5969 117.316 55.4158V60.5452C117.316 60.7997 117.255 60.9934 117.133 61.1317C117.01 61.27 116.838 61.342 116.61 61.342C116.382 61.342 116.187 61.27 116.059 61.1317C115.931 60.9934 115.87 60.7997 115.87 60.5452V59.0678H116.042C115.942 59.5492 115.748 59.9586 115.464 60.2962C115.18 60.6392 114.824 60.9048 114.407 61.093C113.99 61.2811 113.517 61.3751 113 61.3751H112.989V61.3807Z" fill="#FFDB67"/>
<path d="M122.978 61.3807C122.066 61.3807 121.365 61.104 120.887 60.5507C120.409 59.9973 120.164 59.2006 120.164 58.1658V48.5103C120.164 48.2557 120.225 48.0676 120.353 47.9348C120.481 47.802 120.67 47.7356 120.926 47.7356C121.165 47.7356 121.354 47.802 121.499 47.9348C121.638 48.0676 121.71 48.2613 121.71 48.5103V58.0496C121.71 58.7302 121.844 59.2393 122.122 59.5713C122.394 59.9033 122.795 60.0748 123.329 60.0748C123.446 60.0748 123.546 60.0693 123.635 60.0582C123.724 60.0471 123.813 60.0416 123.902 60.0416C124.041 60.0305 124.141 60.0582 124.196 60.1357C124.252 60.2131 124.28 60.3625 124.28 60.5894C124.28 60.8163 124.23 60.9878 124.13 61.0985C124.03 61.2091 123.863 61.2866 123.635 61.3253C123.535 61.3364 123.423 61.353 123.312 61.3641C123.195 61.3751 123.09 61.3807 122.989 61.3807H122.978Z" fill="#FFDB67"/>
<path d="M129.33 61.3806C128.607 61.3806 128.001 61.2534 127.511 60.9933C127.022 60.7332 126.66 60.357 126.416 59.859C126.177 59.361 126.054 58.7523 126.054 58.033V53.208H124.78C124.564 53.208 124.402 53.1527 124.285 53.0475C124.169 52.9424 124.113 52.793 124.113 52.6049C124.113 52.4167 124.169 52.2729 124.285 52.1677C124.402 52.0626 124.564 52.0183 124.78 52.0183H126.054V49.8438C126.054 49.5892 126.126 49.4011 126.266 49.2683C126.405 49.1355 126.594 49.0691 126.838 49.0691C127.083 49.0691 127.267 49.1355 127.4 49.2683C127.534 49.4011 127.6 49.5948 127.6 49.8438V52.0183H129.998C130.215 52.0183 130.376 52.0681 130.493 52.1677C130.61 52.2673 130.665 52.4112 130.665 52.6049C130.665 52.7985 130.61 52.9424 130.493 53.0475C130.382 53.1527 130.215 53.208 129.998 53.208H127.6V57.8836C127.6 58.6029 127.751 59.1507 128.057 59.5215C128.362 59.8922 128.857 60.0803 129.542 60.0803C129.781 60.0803 129.987 60.0582 130.159 60.0029C130.331 59.9531 130.471 59.9254 130.587 59.9254C130.704 59.9143 130.799 59.9531 130.871 60.0361C130.949 60.1246 130.982 60.274 130.982 60.4898C130.982 60.6392 130.954 60.7775 130.899 60.9048C130.843 61.032 130.743 61.1206 130.604 61.1704C130.454 61.2202 130.254 61.27 130.003 61.3142C129.753 61.3585 129.531 61.3806 129.33 61.3806Z" fill="#FFDB67"/>
<path d="M133.157 61.3418C132.901 61.3418 132.712 61.2699 132.584 61.1316C132.456 60.9933 132.395 60.7996 132.395 60.5451V48.5046C132.395 48.2501 132.456 48.062 132.584 47.9292C132.712 47.7964 132.901 47.73 133.157 47.73C133.396 47.73 133.585 47.7964 133.73 47.9292C133.869 48.062 133.941 48.2556 133.941 48.5046V54.049H133.697C133.964 53.3186 134.397 52.7653 134.998 52.3945C135.599 52.0238 136.294 51.8357 137.084 51.8357C137.818 51.8357 138.43 51.9685 138.919 52.2341C139.409 52.4997 139.77 52.8981 140.015 53.4348C140.254 53.9715 140.377 54.6521 140.377 55.471V60.5451C140.377 60.7996 140.31 60.9933 140.176 61.1316C140.043 61.2699 139.854 61.3418 139.615 61.3418C139.359 61.3418 139.17 61.2699 139.036 61.1316C138.903 60.9933 138.836 60.7996 138.836 60.5451V55.5651C138.836 54.7074 138.669 54.0766 138.33 53.6838C137.99 53.2909 137.457 53.0862 136.722 53.0862C135.871 53.0862 135.198 53.3463 134.698 53.8719C134.197 54.3976 133.947 55.0948 133.947 55.9635V60.5451C133.947 61.0762 133.685 61.3418 133.168 61.3418H133.157Z" fill="#FFDB67"/>
<path d="M145.166 64.7504C144.977 64.7504 144.821 64.7006 144.71 64.601C144.598 64.5014 144.526 64.363 144.509 64.197C144.493 64.031 144.52 63.854 144.593 63.6769L145.905 60.7443V61.4083L142.251 52.9645C142.173 52.7764 142.151 52.5993 142.173 52.4333C142.201 52.2673 142.273 52.1345 142.401 52.0349C142.529 51.9353 142.707 51.8855 142.935 51.8855C143.135 51.8855 143.297 51.9298 143.414 52.0183C143.53 52.1068 143.63 52.2673 143.719 52.4886L146.84 60.0969H146.328L149.487 52.4886C149.588 52.2618 149.699 52.1068 149.81 52.0183C149.927 51.9298 150.088 51.8855 150.305 51.8855C150.505 51.8855 150.661 51.9353 150.772 52.0349C150.878 52.1345 150.945 52.2673 150.961 52.4222C150.978 52.5827 150.95 52.7542 150.878 52.9424L146.006 64.1472C145.905 64.3741 145.794 64.5346 145.672 64.6231C145.549 64.7116 145.383 64.7559 145.166 64.7559V64.7504Z" fill="#FFDB67"/>
<path d="M158.843 61.3419C158.576 61.3419 158.37 61.2699 158.225 61.1261C158.081 60.9822 158.009 60.7719 158.009 60.4897V48.7149C158.009 48.4383 158.081 48.228 158.225 48.0786C158.37 47.9347 158.581 47.8628 158.865 47.8628H165.773C165.99 47.8628 166.151 47.9181 166.268 48.0343C166.385 48.1505 166.441 48.3055 166.441 48.5102C166.441 48.726 166.385 48.8864 166.268 49.0026C166.151 49.1188 165.99 49.1742 165.773 49.1742H159.572V53.8277H165.373C165.59 53.8277 165.757 53.883 165.879 53.9992C166.001 54.1099 166.062 54.2703 166.062 54.4695C166.062 54.6853 166.001 54.8458 165.879 54.962C165.757 55.0727 165.59 55.1335 165.373 55.1335H159.572V60.4897C159.572 61.0597 159.332 61.3419 158.848 61.3419H158.843Z" fill="#FFDB67"/>
<path d="M171.708 61.3807C170.807 61.3807 170.028 61.187 169.366 60.7942C168.704 60.4013 168.198 59.8535 167.837 59.1397C167.475 58.4259 167.292 57.5849 167.292 56.611C167.292 55.8806 167.392 55.2221 167.598 54.6356C167.803 54.0491 168.098 53.5456 168.493 53.1306C168.888 52.7156 169.35 52.3946 169.889 52.1733C170.429 51.952 171.035 51.8413 171.708 51.8413C172.609 51.8413 173.388 52.035 174.05 52.4278C174.712 52.8207 175.218 53.374 175.579 54.0823C175.941 54.7961 176.124 55.6371 176.124 56.611C176.124 57.3414 176.024 57.9999 175.818 58.5808C175.618 59.1618 175.318 59.6654 174.923 60.0859C174.528 60.5064 174.061 60.8329 173.527 61.0487C172.987 61.27 172.381 61.3807 171.708 61.3807ZM171.708 60.1523C172.281 60.1523 172.782 60.014 173.21 59.7373C173.644 59.4606 173.972 59.0567 174.211 58.5255C174.445 57.9943 174.561 57.358 174.561 56.611C174.561 55.4601 174.306 54.5858 173.788 53.9772C173.277 53.374 172.581 53.0697 171.702 53.0697C171.118 53.0697 170.612 53.208 170.19 53.4792C169.767 53.7503 169.433 54.1487 169.2 54.6688C168.966 55.1945 168.849 55.8419 168.849 56.611C168.849 57.7453 169.111 58.6196 169.628 59.2338C170.145 59.848 170.84 60.1523 171.702 60.1523H171.708Z" fill="#FFDB67"/>
<path d="M182.287 61.3807C181.386 61.3807 180.607 61.187 179.946 60.7942C179.284 60.4013 178.777 59.8535 178.416 59.1397C178.054 58.4259 177.871 57.5849 177.871 56.611C177.871 55.8806 177.971 55.2221 178.177 54.6356C178.383 54.0491 178.677 53.5456 179.072 53.1306C179.467 52.7156 179.929 52.3946 180.468 52.1733C181.008 51.952 181.614 51.8413 182.287 51.8413C183.188 51.8413 183.967 52.035 184.629 52.4278C185.291 52.8207 185.797 53.374 186.158 54.0823C186.52 54.7961 186.703 55.6371 186.703 56.611C186.703 57.3414 186.603 57.9999 186.398 58.5808C186.197 59.1618 185.897 59.6654 185.502 60.0859C185.107 60.5064 184.64 60.8329 184.106 61.0487C183.566 61.27 182.96 61.3807 182.287 61.3807ZM182.287 60.1523C182.86 60.1523 183.361 60.014 183.789 59.7373C184.223 59.4606 184.551 59.0567 184.79 58.5255C185.024 57.9943 185.141 57.358 185.141 56.611C185.141 55.4601 184.885 54.5858 184.367 53.9772C183.856 53.374 183.16 53.0697 182.282 53.0697C181.698 53.0697 181.191 53.208 180.769 53.4792C180.346 53.7503 180.012 54.1487 179.779 54.6688C179.545 55.1945 179.428 55.8419 179.428 56.611C179.428 57.7453 179.69 58.6196 180.207 59.2338C180.724 59.848 181.419 60.1523 182.282 60.1523H182.287Z" fill="#FFDB67"/>
<path d="M192.544 61.3807C191.721 61.3807 190.997 61.187 190.386 60.7941C189.768 60.4013 189.295 59.8535 188.956 59.1397C188.622 58.4259 188.45 57.5848 188.45 56.611C188.45 55.6371 188.617 54.7795 188.956 54.0657C189.29 53.3519 189.768 52.8041 190.386 52.4168C191.003 52.035 191.721 51.8413 192.544 51.8413C193.367 51.8413 194.096 52.0516 194.696 52.4666C195.291 52.8815 195.692 53.4459 195.892 54.1487H195.681V48.5103C195.681 48.2557 195.747 48.0676 195.881 47.9348C196.014 47.802 196.209 47.7356 196.459 47.7356C196.71 47.7356 196.888 47.802 197.021 47.9348C197.155 48.0676 197.221 48.2613 197.221 48.5103V60.5507C197.221 60.8052 197.16 60.9989 197.032 61.1372C196.904 61.2755 196.715 61.3475 196.459 61.3475C196.204 61.3475 196.031 61.2755 195.898 61.1372C195.764 60.9989 195.697 60.8052 195.697 60.5507V58.7524L195.909 59.018C195.703 59.7373 195.302 60.3127 194.702 60.7388C194.101 61.1649 193.378 61.3807 192.544 61.3807ZM192.866 60.1523C193.439 60.1523 193.94 60.0139 194.368 59.7373C194.802 59.4606 195.13 59.0567 195.369 58.5255C195.603 57.9943 195.72 57.358 195.72 56.611C195.72 55.4601 195.464 54.5858 194.947 53.9771C194.435 53.374 193.74 53.0697 192.861 53.0697C192.277 53.0697 191.771 53.208 191.348 53.4791C190.925 53.7503 190.591 54.1487 190.358 54.6688C190.124 55.1945 190.007 55.8419 190.007 56.611C190.007 57.7453 190.269 58.6196 190.786 59.2338C191.303 59.848 191.999 60.1523 192.861 60.1523H192.866Z" fill="#FFDB67"/>
<path d="M210.142 61.3419C209.903 61.3419 209.703 61.2866 209.553 61.1704C209.402 61.0542 209.28 60.8882 209.191 60.6613L203.957 48.7537C203.868 48.5379 203.84 48.3609 203.879 48.217C203.918 48.0731 204.002 47.9569 204.135 47.8684C204.269 47.7799 204.424 47.7356 204.602 47.7356C204.842 47.7356 205.025 47.7909 205.147 47.8961C205.27 48.0012 205.364 48.1561 205.442 48.3609L210.465 59.9641H209.859L214.864 48.3387C214.953 48.1506 215.059 48.0012 215.187 47.8961C215.315 47.7909 215.493 47.7356 215.721 47.7356C215.899 47.7356 216.049 47.7799 216.166 47.8684C216.288 47.9569 216.361 48.0787 216.394 48.2281C216.427 48.3775 216.394 48.5545 216.311 48.7593L211.077 60.6669C210.988 60.8937 210.871 61.0653 210.726 61.1759C210.582 61.2866 210.387 61.3475 210.148 61.3475H210.142V61.3419Z" fill="#FFDB67"/>
<path d="M219.086 61.3418C218.847 61.3418 218.663 61.2754 218.535 61.1426C218.408 61.0098 218.346 60.8162 218.346 60.5672V48.5268C218.346 48.2722 218.408 48.0786 218.535 47.9402C218.663 47.8019 218.825 47.73 219.03 47.73C219.236 47.73 219.381 47.7632 219.475 47.8351C219.57 47.907 219.681 48.0288 219.809 48.2058L228.108 59.206H227.652V48.4936C227.652 48.2556 227.713 48.0675 227.841 47.9347C227.969 47.8019 228.152 47.7355 228.392 47.7355C228.631 47.7355 228.792 47.8019 228.914 47.9347C229.037 48.0675 229.098 48.2556 229.098 48.4936V60.5893C229.098 60.8273 229.042 61.0154 228.937 61.1482C228.831 61.281 228.675 61.3474 228.469 61.3474C228.28 61.3474 228.125 61.3086 228.013 61.2367C227.902 61.1592 227.78 61.043 227.652 60.877L219.375 49.8769H219.815V60.5727C219.815 60.8273 219.754 61.0154 219.626 61.1482C219.498 61.281 219.32 61.3474 219.092 61.3474L219.086 61.3418Z" fill="#FFDB67"/>
</g>
<defs>
<clipPath id="clip0_24_92">
<rect width="245" height="69" fill="white"/>
</clipPath>
</defs>
</svg>
